<svg width="1024" height="1024" viewBox="0 0 1024 1024" fill="none" xmlns="http://www.w3.org/2000/svg">
    <rect width="1024" height="1024" rx="200" fill="#07C160"/>
    
    <path fill-rule="evenodd" clip-rule="evenodd" 
          d="M260 180C215.817 180 180 215.817 180 260V764C180 808.183 215.817 844 260 844H764C808.183 844 844 808.183 844 764V260C844 215.817 808.183 180 764 180H260ZM669.657 406.343C685.278 390.722 710.605 390.722 726.226 406.343C741.847 421.964 741.847 447.291 726.226 462.912L506.226 682.912C490.605 698.533 465.278 698.533 449.657 682.912L297.774 531.029C282.153 515.408 282.153 490.081 297.774 474.46C313.395 458.839 338.722 458.839 354.343 474.46L477.941 598.059L669.657 406.343Z" 
          fill="white"/>
</svg>